<svg width="30" height="27" viewBox="0 0 30 27" fill="none" xmlns="http://www.w3.org/2000/svg">
  <path d="M22.6 26.8H8.2C8.2 26.8 8.1 26.8 8.1 26.7L0.900002 13.7V13.6L8.1 0.599998L8.2 0.5H22.6C22.6 0.5 22.7 0.499998 22.7 0.599998L29.9 13.6V13.7L22.6 26.8Z" fill="#475B75"/>
  <path d="M21.1 12H17V7.89998C17 6.99998 16.3 6.29999 15.4 6.29999C14.5 6.29999 13.8 6.99998 13.8 7.89998V12H9.7C8.8 12 8.1 12.7 8.1 13.6C8.1 14.5 8.8 15.2 9.7 15.2H13.8V19.3C13.8 20.2 14.5 20.9 15.4 20.9C16.3 20.9 17 20.2 17 19.3V15.2H21.1C22 15.2 22.7 14.5 22.7 13.6C22.7 12.7 22 12 21.1 12Z" fill="#F49935"/>
</svg>
