<svg width="15" height="15" viewBox="0 0 15 15" fill="none" xmlns="http://www.w3.org/2000/svg">
  <path d="M13.3 5.99998H9.2V1.89998C9.2 0.999979 8.50001 0.299988 7.60001 0.299988C6.70001 0.299988 6 0.999979 6 1.89998V5.99998H1.89999C0.999994 5.99998 0.300003 6.69999 0.300003 7.59999C0.300003 8.49999 0.999994 9.19998 1.89999 9.19998H6V13.3C6 14.2 6.70001 14.9 7.60001 14.9C8.50001 14.9 9.2 14.2 9.2 13.3V9.19998H13.3C14.2 9.19998 14.9 8.49999 14.9 7.59999C14.9 6.69999 14.2 5.99998 13.3 5.99998Z" fill="#475B75"/>
</svg>
