<svg width="15" height="19" viewBox="0 0 15 19" fill="none" xmlns="http://www.w3.org/2000/svg">
  <path d="M13.7 13.7H11.5V11.5C11.5 11 11.1 10.6 10.6 10.6C10.1 10.6 9.69999 11 9.69999 11.5V13.7H7.99999L11 5.20001C11.6 3.50001 10.7 1.6 8.99999 0.999998C7.29999 0.399998 5.4 1.3 4.8 3L0.599999 15C0.0999989 16.4 0.79999 17.9 2.19999 18.4C2.49999 18.5 2.69999 18.5 2.99999 18.5C3.99999 18.5 4.99999 17.8 5.39999 16.6L8.69999 7.29999C8.89999 6.69999 8.89999 6.10001 8.69999 5.70001C8.49999 5.20001 8.1 4.80001 7.6 4.70001C6.6 4.30001 5.7 4.9 5.3 6.1L3.39999 11.4C3.39999 11.5 3.39999 11.7 3.39999 11.8C3.39999 11.9 3.59999 12 3.69999 12.1C3.99999 12.2 4.2 12.1 4.3 11.8L6.19999 6.5C6.39999 5.9 6.7 5.50001 7.3 5.70001C7.9 5.90001 8 6.6 7.8 7.1L4.49999 16.4C4.39999 16.8 4.1 17.2 3.8 17.4C3.4 17.6 3 17.7 2.6 17.5C2.2 17.4 1.8 17 1.6 16.6C1.4 16.2 1.39999 15.7 1.49999 15.3L5.69999 3.29999C5.89999 2.69999 6.29999 2.3 6.89999 2C7.49999 1.7 8.09999 1.69999 8.69999 1.89999C9.29999 2.09999 9.69999 2.5 9.99999 3.1C10.3 3.7 10.3 4.29999 10.1 4.89999L6.8 14.4C6.8 14.5 6.8 14.5 6.8 14.6C6.8 15.1 7.19999 15.4 7.69999 15.4H9.89999V17.6C9.89999 18.1 10.3 18.5 10.8 18.5C11.3 18.5 11.7 18.1 11.7 17.6V15.4H13.9C14.4 15.4 14.8 15 14.8 14.5C14.5 14.1 14.1 13.7 13.7 13.7Z" fill="#475B75"/>
</svg>
