<svg width="85" height="77" viewBox="0 0 85 77" fill="none" xmlns="http://www.w3.org/2000/svg">
  <g clip-path="url(#clip0_370_9130)">
    <path d="M63.882 77H21.646C21.646 77 21.646 77 21.118 77L0 38.5C0 38.5 0 38.5 0 37.9726L21.118 0C21.118 0 21.118 0 21.646 0H63.882C63.882 0 63.882 0 64.4099 0L85.528 37.9726C85.528 37.9726 85.528 37.9726 85.528 38.5L63.882 77Z" fill="#475B75"/>
    <path d="M60.1861 50.1024H53.8507V43.7736C53.8507 42.1914 52.7948 41.1366 51.211 41.1366C50.1551 41.1366 49.0992 42.1914 49.0992 43.7736V50.1024H43.8197L52.7948 25.3147C54.3787 20.0408 51.7389 14.7668 46.9874 13.1846C41.7079 11.6024 36.4284 14.2394 34.8445 18.986L22.7016 54.3216C21.1178 58.5408 23.2296 62.7599 27.4532 64.3421C28.5091 64.8695 29.037 64.8695 30.0929 64.8695C33.2606 64.8695 35.9004 62.7599 36.9563 59.5955L45.9315 31.6435C46.4594 30.0613 46.4594 28.4791 45.9315 26.8969C45.4035 25.3147 43.8197 24.2599 42.7638 23.7325C39.5961 22.6777 36.9563 24.2599 35.9004 27.9517L30.6209 43.2462C30.6209 43.7736 30.6209 43.7736 30.6209 44.301C30.6209 44.8284 31.1488 44.8284 31.6768 44.8284C32.2047 45.3558 33.2607 44.8284 33.7886 43.7736L39.0681 28.4791C39.0681 26.8969 40.124 25.8421 41.7079 26.3695C43.8197 26.8969 43.8197 29.0065 43.2917 30.5887L33.2607 58.0134C32.7327 59.0681 32.2047 60.1229 31.1488 60.6503C30.0929 61.1777 29.037 61.7051 27.4532 61.1777C26.3973 60.6503 25.3414 59.5955 24.8134 58.5408C24.2855 57.486 24.2855 55.9038 24.8134 54.849L36.9563 19.5134C37.4843 17.9312 39.0681 16.8764 40.652 15.8216C42.2358 15.2942 43.8197 14.7668 45.9315 15.8216C47.5153 16.349 48.5712 17.4038 49.6271 18.986C50.1551 20.5681 50.683 22.6777 50.1551 24.2599L40.124 51.6846V52.212C40.124 53.7942 41.1799 54.849 42.7638 54.849H49.0992V61.1777C49.0992 62.7599 50.1551 63.8147 51.7389 63.8147C53.3228 63.8147 54.3787 62.7599 54.3787 61.1777V54.849H60.7141C62.2979 54.849 63.3538 53.7942 63.3538 52.212C63.3538 50.6298 61.77 50.1024 60.1861 50.1024Z" fill="white"/>
  </g>
  <defs>
    <clipPath id="clip0_370_9130">
      <rect width="85" height="77" fill="white"/>
    </clipPath>
  </defs>
</svg>
