<svg width="14" height="18" viewBox="0 0 14 18" fill="none" xmlns="http://www.w3.org/2000/svg">
  <path d="M12.2 0.200012H1.2C0.699997 0.200012 0.199997 0.600012 0.199997 1.20001V16.1C0.199997 16.6 0.599997 17.1 1.2 17.1H12.2C12.7 17.1 13.2 16.7 13.2 16.1V1.20001C13.1 0.700012 12.7 0.200012 12.2 0.200012ZM1.3 2C1.3 1.7 1.59999 1.39999 1.89999 1.39999H11.5C11.8 1.39999 12.1 1.7 12.1 2V4.70001C12.1 5.00001 11.8 5.29999 11.5 5.29999H5L6.2 4C6.3 3.9 6.3 3.70001 6.2 3.60001C6.1 3.50001 5.9 3.50001 5.8 3.60001L4.2 5.20001H4L6.10001 3C6.20001 2.9 6.20001 2.70001 6.10001 2.60001C6.00001 2.50001 5.8 2.50001 5.7 2.60001L3.3 5.10001H3.10001L4 4.20001C4.1 4.10001 4.1 3.89999 4 3.79999C3.9 3.69999 3.70001 3.69999 3.60001 3.79999L2.39999 5H1.7C1.4 5 1.10001 4.69999 1.10001 4.39999V2H1.3ZM1.3 8.5C1.3 8.2 1.59999 7.89999 1.89999 7.89999H3.10001C3.40001 7.89999 3.7 8.2 3.7 8.5V9.70001C3.7 10 3.40001 10.3 3.10001 10.3H1.89999C1.59999 10.3 1.3 10 1.3 9.70001V8.5ZM3.60001 15.3C3.60001 15.6 3.3 15.9 3 15.9H1.8C1.5 15.9 1.2 15.6 1.2 15.3V14.1C1.2 13.8 1.5 13.5 1.8 13.5H3C3.3 13.5 3.60001 13.8 3.60001 14.1V15.3ZM3.60001 12.5C3.60001 12.8 3.3 13.1 3 13.1H1.8C1.5 13.1 1.2 12.8 1.2 12.5V11.3C1.2 11 1.5 10.7 1.8 10.7H3C3.3 10.7 3.60001 11 3.60001 11.3V12.5ZM6.39999 15.3C6.39999 15.6 6.1 15.9 5.8 15.9H4.60001C4.30001 15.9 4 15.6 4 15.3V14.1C4 13.8 4.30001 13.5 4.60001 13.5H5.8C6.1 13.5 6.39999 13.8 6.39999 14.1V15.3ZM6.39999 12.5C6.39999 12.8 6.1 13.1 5.8 13.1H4.60001C4.30001 13.1 4 12.8 4 12.5V11.3C4 11 4.30001 10.7 4.60001 10.7H5.8C6.1 10.7 6.39999 11 6.39999 11.3V12.5ZM6.39999 9.70001C6.39999 10 6.1 10.3 5.8 10.3H4.60001C4.30001 10.3 4 10 4 9.70001V8.5C4 8.2 4.30001 7.89999 4.60001 7.89999H5.8C6.1 7.89999 6.39999 8.2 6.39999 8.5V9.70001ZM9.3 15.3C9.3 15.6 9 15.9 8.7 15.9H7.5C7.2 15.9 6.89999 15.6 6.89999 15.3V14.1C6.89999 13.8 7.2 13.5 7.5 13.5H8.7C9 13.5 9.3 13.8 9.3 14.1V15.3ZM9.3 12.5C9.3 12.8 9 13.1 8.7 13.1H7.5C7.2 13.1 6.89999 12.8 6.89999 12.5V11.3C6.89999 11 7.2 10.7 7.5 10.7H8.7C9 10.7 9.3 11 9.3 11.3V12.5ZM9.3 9.70001C9.3 10 9 10.3 8.7 10.3H7.5C7.2 10.3 6.89999 10 6.89999 9.70001V8.5C6.89999 8.2 7.2 7.89999 7.5 7.89999H8.7C9 7.89999 9.3 8.2 9.3 8.5V9.70001ZM9.3 6.89999C9.3 7.19999 9 7.5 8.7 7.5H5.89999H4.7H3H2.3H1.8C1.5 7.5 1.2 7.19999 1.2 6.89999V6.70001C1.2 6.40001 1.5 6.10001 1.8 6.10001H2.3H3H4.60001H5.8H8.60001C8.90001 6.10001 9.2 6.40001 9.2 6.70001V6.89999H9.3ZM9.7 8.5C9.7 8.2 10 7.89999 10.3 7.89999H11.5C11.8 7.89999 12.1 8.2 12.1 8.5V9.70001C12.1 10 11.8 10.3 11.5 10.3H10.3C10 10.3 9.7 10 9.7 9.70001V8.5ZM12.1 14.1V14.5V15.3C12.1 15.6 11.8 15.9 11.5 15.9H10.3C10 15.9 9.7 15.6 9.7 15.3V14.5V14.1V11.3C9.7 11 10 10.7 10.3 10.7H11.5C11.8 10.7 12.1 11 12.1 11.3V14.1ZM12.1 6.89999C12.1 7.19999 11.8 7.5 11.5 7.5H10.3C10 7.5 9.7 7.19999 9.7 6.89999V6.70001C9.7 6.40001 10 6.10001 10.3 6.10001H11.5C11.8 6.10001 12.1 6.40001 12.1 6.70001V6.89999Z" fill="#475B75"/>
</svg>
