<svg width="7" height="7" viewBox="0 0 7 7" fill="none" xmlns="http://www.w3.org/2000/svg">
  <path d="M5.40001 0.400006L4.00001 1.8C3.90001 1.9 3.70002 1.9 3.60002 1.8L2.20002 0.400006C1.80002 6.10948e-06 1.30001 6.10948e-06 0.900006 0.400006C0.500006 0.800006 0.500006 1.30002 0.900006 1.70002L2.3 3.10002C2.4 3.20002 2.4 3.40001 2.3 3.50001L0.900006 4.90001C0.500006 5.30001 0.500006 5.80002 0.900006 6.20002C1.30001 6.60002 1.80002 6.60002 2.20002 6.20002L3.60002 4.8C3.70002 4.7 3.90001 4.7 4.00001 4.8L5.40001 6.20002C5.80001 6.60002 6.30002 6.60002 6.70002 6.20002C7.10002 5.80002 7.10002 5.30001 6.70002 4.90001L5.3 3.50001C5.2 3.40001 5.2 3.20002 5.3 3.10002L6.70002 1.70002C7.10002 1.30002 7.10002 0.800006 6.70002 0.400006C6.30002 6.10948e-06 5.70001 0.100006 5.40001 0.400006Z" fill="#98221F"/>
</svg>
