<svg width="8" height="7" viewBox="0 0 8 7" fill="none" xmlns="http://www.w3.org/2000/svg">
  <path d="M7.70001 1.09998V0.899986C7.70001 0.799986 7.60001 0.799988 7.60001 0.799988H7.29999C7.19999 0.799988 7.20001 0.899986 7.20001 0.899986V0.999985H0.600006V0.899986C0.600006 0.799986 0.5 0.799988 0.5 0.799988H0.200012C0.100012 0.799988 0.100006 0.899986 0.100006 0.899986V6.29999C0.100006 6.39999 0.200012 6.39999 0.200012 6.39999H7.70001C7.80001 6.39999 7.79999 6.29999 7.79999 6.29999L7.70001 1.09998C7.70001 1.09998 7.70001 1.19998 7.70001 1.09998ZM5.20001 3.29999H2.5C2.2 3.29999 1.89999 2.99998 1.89999 2.69998C1.89999 2.39998 2.2 2.09998 2.5 2.09998H5.20001C5.50001 2.09998 5.79999 2.39998 5.79999 2.69998C5.79999 3.09998 5.50001 3.29999 5.20001 3.29999Z" fill="#475B75"/>
</svg>
