<svg width="8" height="8" viewBox="0 0 8 8" fill="none" xmlns="http://www.w3.org/2000/svg">
  <path d="M7.20001 0.200012H0.5C0.3 0.200012 0 0.400012 0 0.700012V7.40001C0 7.60001 0.2 7.90001 0.5 7.90001H7.20001C7.40001 7.90001 7.70001 7.70001 7.70001 7.40001V0.700012C7.60001 0.400012 7.40001 0.200012 7.20001 0.200012ZM6.70001 6.90001H0.899994V1.10001H6.70001V6.90001Z" fill="#475B75"/>
  <path d="M4.29999 2.30002H4.79999C4.89999 2.30002 5 2.20003 5 2.10003V1.60003C5 1.50003 4.89999 1.40002 4.79999 1.40002H4.29999C4.19999 1.40002 4.10001 1.50003 4.10001 1.60003V2.10003C4.10001 2.20003 4.19999 2.30002 4.29999 2.30002Z" fill="#475B75"/>
  <path d="M5.70001 2.30002H6.20001C6.30001 2.30002 6.39999 2.20003 6.39999 2.10003V1.60003C6.39999 1.50003 6.30001 1.40002 6.20001 1.40002H5.70001C5.60001 1.40002 5.5 1.50003 5.5 1.60003V2.10003C5.5 2.20003 5.60001 2.30002 5.70001 2.30002Z" fill="#475B75"/>
  <path d="M4.29999 3.69999H4.79999C4.89999 3.69999 5 3.59999 5 3.49999V2.99999C5 2.89999 4.89999 2.79999 4.79999 2.79999H4.29999C4.19999 2.79999 4.10001 2.89999 4.10001 2.99999V3.49999C4.10001 3.59999 4.19999 3.69999 4.29999 3.69999Z" fill="#475B75"/>
  <path d="M5.70001 3.69999H6.20001C6.30001 3.69999 6.39999 3.59999 6.39999 3.49999V2.99999C6.39999 2.89999 6.30001 2.79999 6.20001 2.79999H5.70001C5.60001 2.79999 5.5 2.89999 5.5 2.99999V3.49999C5.5 3.59999 5.60001 3.69999 5.70001 3.69999Z" fill="#475B75"/>
  <path d="M4.29999 5.10001H4.79999C4.89999 5.10001 5 5.00001 5 4.90001V4.40001C5 4.30001 4.89999 4.20001 4.79999 4.20001H4.29999C4.19999 4.20001 4.10001 4.30001 4.10001 4.40001V4.90001C4.10001 5.00001 4.19999 5.10001 4.29999 5.10001Z" fill="#475B75"/>
  <path d="M5.70001 5.10001H6.20001C6.30001 5.10001 6.39999 5.00001 6.39999 4.90001V4.40001C6.39999 4.30001 6.30001 4.20001 6.20001 4.20001H5.70001C5.60001 4.20001 5.5 4.30001 5.5 4.40001V4.90001C5.5 5.00001 5.60001 5.10001 5.70001 5.10001Z" fill="#475B75"/>
  <path d="M4.29999 6.50004H4.79999C4.89999 6.50004 5 6.40004 5 6.30004V5.80004C5 5.70004 4.89999 5.60004 4.79999 5.60004H4.29999C4.19999 5.60004 4.10001 5.70004 4.10001 5.80004V6.30004C4.10001 6.40004 4.19999 6.50004 4.29999 6.50004Z" fill="#475B75"/>
  <path d="M5.70001 6.50004H6.20001C6.30001 6.50004 6.39999 6.40004 6.39999 6.30004V5.80004C6.39999 5.70004 6.30001 5.60004 6.20001 5.60004H5.70001C5.60001 5.60004 5.5 5.70004 5.5 5.80004V6.30004C5.5 6.40004 5.60001 6.50004 5.70001 6.50004Z" fill="#475B75"/>
  <path d="M1.5 1.9H3.29999C3.39999 1.9 3.5 1.8 3.5 1.7C3.5 1.6 3.39999 1.5 3.29999 1.5H1.5C1.4 1.5 1.29999 1.6 1.29999 1.7C1.29999 1.8 1.4 1.9 1.5 1.9Z" fill="#475B75"/>
  <path d="M1.5 2.60001H3.29999C3.39999 2.60001 3.5 2.50001 3.5 2.40001C3.5 2.30001 3.39999 2.20001 3.29999 2.20001H1.5C1.4 2.20001 1.29999 2.30001 1.29999 2.40001C1.29999 2.50001 1.4 2.60001 1.5 2.60001Z" fill="#475B75"/>
  <path d="M1.5 3.4H3.29999C3.39999 3.4 3.5 3.3 3.5 3.2C3.5 3.1 3.39999 3 3.29999 3H1.5C1.4 3 1.29999 3.1 1.29999 3.2C1.29999 3.3 1.4 3.4 1.5 3.4Z" fill="#475B75"/>
  <path d="M1.5 4.10001H3.29999C3.39999 4.10001 3.5 4.00001 3.5 3.90001C3.5 3.80001 3.39999 3.70001 3.29999 3.70001H1.5C1.4 3.70001 1.29999 3.80001 1.29999 3.90001C1.29999 4.00001 1.4 4.10001 1.5 4.10001Z" fill="#475B75"/>
  <path d="M1.5 4.80002H3.29999C3.39999 4.80002 3.5 4.70003 3.5 4.60003C3.5 4.50003 3.39999 4.40002 3.29999 4.40002H1.5C1.4 4.40002 1.29999 4.50003 1.29999 4.60003C1.29999 4.70003 1.4 4.80002 1.5 4.80002Z" fill="#475B75"/>
</svg>
