<?xml version="1.0" encoding="utf-8"?>
<svg viewBox="392.3 490.1 33.8 30.7" xmlns="http://www.w3.org/2000/svg">
  <defs>
    <style type="text/css">
	.st0{font-family:'MyriadPro-Regular';}
	.st1{font-size:12px;}
	.st2{fill:#FFFFFF;stroke:#475B75;stroke-width:2;stroke-miterlimit:10;}
	.st3{fill:#475B75;stroke:#FFFFFF;stroke-width:2;stroke-miterlimit:10;}
	.st4{fill:#FFFFFF;}
	.st5{fill:none;stroke:#475B75;stroke-width:2;stroke-linecap:round;stroke-miterlimit:10;stroke-dasharray:6.226,4.1507;}
	.st6{fill:#475B75;}
	.st7{fill:none;stroke:#475B75;stroke-width:2;stroke-miterlimit:10;}
	.st8{fill:none;stroke:#FFFFFF;stroke-miterlimit:10;}
</style>
  </defs>
  <g id="XMLID_8_" transform="matrix(0.9999999999999999, 0, 0, 0.9999999999999999, 0, 0)">
    <g>
      <polygon class="st6" points="423.7,501 424.4,502.3 414.8,502.3 414.8,501 &#9;&#9;"/>
      <path class="st6" d="M417.7,490.2l6,10.8h-8.9v-10.9h2.8C417.7,490.1,417.7,490.1,417.7,490.2z"/>
      <path class="st6" d="M417.7,520.6c0,0-0.1,0.1-0.1,0.1h-2.8v-18.4h9.6l1.7,3.1c0,0,0,0.1,0,0.1L417.7,520.6z"/>
      <rect x="413" y="502.3" class="st4" width="1.8" height="18.4"/>
      <rect x="413" y="501" class="st4" width="1.8" height="1.3"/>
      <rect x="413" y="490.1" class="st4" width="1.8" height="10.9"/>
      <path class="st6" d="M413,502.3v18.4h-12.2c0,0-0.1,0-0.1-0.1l-8.4-15.2c0,0,0-0.1,0-0.1l1.7-3.1H413z"/>
      <polygon class="st4" points="413,501 413,502.3 394,502.3 394.7,501 &#9;&#9;"/>
      <path class="st6" d="M413,490.1V501h-18.3l6-10.8c0,0,0.1-0.1,0.1-0.1H413z"/>
    </g>
    <g>
      <path class="st8" d="M424.4,502.3l1.7,3.1c0,0,0,0.1,0,0.1l-8.4,15.2c0,0-0.1,0.1-0.1,0.1h-2.8H413h-12.2c0,0-0.1,0-0.1-0.1 l-8.4-15.2c0,0,0-0.1,0-0.1l1.7-3.1l0.7-1.3l6-10.8c0,0,0.1-0.1,0.1-0.1H413h1.8h2.8c0,0,0.1,0,0.1,0.1l6,10.8L424.4,502.3z"/>
    </g>
  </g>
</svg>