<svg width="14" height="17" viewBox="0 0 14 17" fill="none" xmlns="http://www.w3.org/2000/svg">
  <path d="M11.1 7.80003V14.8H1.8V5.50002H4.2C4.6 4.90002 5 4.40002 5.5 3.90002H1C0.6 3.90002 0.199997 4.30002 0.199997 4.70002V15.6C0.199997 16 0.6 16.4 1 16.4H12C12.4 16.4 12.8 16 12.8 15.6V6.50002L12 7.30003C11.7 7.60003 11.4 7.70003 11.1 7.80003Z" fill="#475B75"/>
  <path d="M13.6 2.90002L11.4 0.700012C10.9 0.200012 10.2 0.200012 9.69999 0.700012C9.19999 1.20001 9.19999 1.90002 9.69999 2.40002L9.8 2.50002C8.9 2.70002 7.89999 3.00001 6.99999 3.60001C5.29999 4.80001 4.1 6.70002 3.6 9.30002C3.5 10 3.9 10.6 4.6 10.7C4.7 10.7 4.8 10.7 4.8 10.7C5.4 10.7 5.89999 10.3 5.99999 9.70001C6.59999 6.50001 8.29999 5.30002 9.69999 4.90002C9.19999 5.40002 9.19999 6.10001 9.69999 6.60001C9.89999 6.80001 10.2 7.00002 10.6 7.00002C11 7.00002 11.2 6.90001 11.5 6.60001L13.7 4.40002C14 4.20002 14 3.40002 13.6 2.90002Z" fill="#475B75"/>
</svg>
