<svg width="11" height="7" viewBox="0 0 11 7" fill="none" xmlns="http://www.w3.org/2000/svg">
  <path d="M5.70001 5.29999C6.85981 5.29999 7.79999 4.35981 7.79999 3.20001C7.79999 2.04021 6.85981 1.10001 5.70001 1.10001C4.54021 1.10001 3.60001 2.04021 3.60001 3.20001C3.60001 4.35981 4.54021 5.29999 5.70001 5.29999Z" fill="white"/>
  <path d="M11 3.20001C11 3.10001 11 3.10001 11 3.20001C9.8 1.40001 7.80001 0.299988 5.70001 0.299988C3.60001 0.299988 1.59999 1.40001 0.399994 3.20001C1.59999 5.00001 3.60001 6.10001 5.70001 6.10001C7.80001 6.10001 9.8 5.00001 11 3.20001ZM7.79999 3.20001C7.79999 4.40001 6.90001 5.29999 5.70001 5.29999C4.50001 5.29999 3.60001 4.40001 3.60001 3.20001C3.60001 2.00001 4.50001 1.10001 5.70001 1.10001C6.90001 1.10001 7.79999 2.00001 7.79999 3.20001Z" fill="#475B75"/>
  <path d="M5.70001 2.20001C5.20001 2.20001 4.70001 2.60001 4.70001 3.20001C4.70001 3.30001 4.70001 3.39999 4.70001 3.39999C4.80001 3.29999 4.9 3.29999 5 3.29999C5.3 3.29999 5.5 3.49999 5.5 3.79999C5.5 3.89999 5.49999 4.00001 5.39999 4.10001C5.49999 4.10001 5.60001 4.10001 5.60001 4.10001C6.10001 4.10001 6.60001 3.70001 6.60001 3.10001C6.70001 2.60001 6.30001 2.20001 5.70001 2.20001Z" fill="#475B75"/>
</svg>
