<svg width="19" height="16" viewBox="0 0 19 16" fill="none" xmlns="http://www.w3.org/2000/svg">
  <path d="M5.60001 9.40001H4.8C4.6 9.40001 4.4 9.20002 4.3 9.00002L4.2 8.50002C3.9 8.40002 3.6 8.30002 3.3 8.10002L3 8.40001C2.8 8.50001 2.5 8.5 2.3 8.3L1.8 7.8C1.6 7.6 1.6 7.30003 1.8 7.20003L2.10001 6.8C2.00001 6.6 1.8 6.30002 1.8 6.00002L1.3 5.90001C1 5.90001 0.899994 5.70001 0.899994 5.40001V4.60002C0.899994 4.40002 1.1 4.20002 1.3 4.10002L1.8 4.00002C1.9 3.70002 2.00001 3.40001 2.10001 3.20001L1.8 2.80002C1.7 2.60002 1.69999 2.30001 1.89999 2.20001L2.39999 1.70001C2.59999 1.50001 2.8 1.50002 3 1.60002L3.39999 1.90001C3.69999 1.70001 3.9 1.60002 4.2 1.60002L4.3 1.10002C4.3 0.900021 4.5 0.700012 4.8 0.700012H5.60001C5.80001 0.700012 6.10001 0.900021 6.10001 1.10002L6.2 1.60002C6.5 1.70002 6.8 1.80001 7 1.90001L7.39999 1.60002C7.59999 1.40002 7.9 1.50002 8 1.60002L8.5 2.10002C8.7 2.30002 8.7 2.50002 8.5 2.80002L8.2 3.20001C8.4 3.40001 8.5 3.70001 8.5 3.90001L9 4.00002C9.2 4.00002 9.39999 4.20002 9.39999 4.50002V5.3C9.39999 5.5 9.2 5.8 9 5.8L8.5 5.90001C8.4 6.20001 8.3 6.50003 8.2 6.70003L8.5 7.10002C8.7 7.30002 8.6 7.60003 8.5 7.70003L7.89999 8.3C7.69999 8.5 7.5 8.5 7.3 8.3L6.89999 8.00002C6.59999 8.20002 6.3 8.30001 6 8.40001L5.89999 8.90001C5.99999 9.20001 5.80001 9.40001 5.60001 9.40001ZM5.2 3.60002C4.4 3.60002 3.7 4.30002 3.7 5.10002C3.7 5.90002 4.4 6.60003 5.2 6.70003C6.1 6.70003 6.7 6.00003 6.7 5.20003C6.8 4.30003 6.1 3.60002 5.2 3.60002Z" fill="#475B75"/>
  <path d="M17.8 9.60001L17.1 9.39999C17.1 9.09999 17 8.8 16.8 8.5L17.3 8C17.5 7.8 17.5 7.59999 17.3 7.39999L16.6 6.5C16.5 6.3 16.2 6.29999 16 6.39999L15.4 6.79999C15.2 6.59999 14.9 6.49999 14.5 6.29999V5.5C14.5 5.3 14.3 5.1 14.1 5L12.9 4.89999C12.9 4.89999 12.9 4.89999 12.8 4.89999C12.6 4.89999 12.4 4.99999 12.4 5.29999L12.2 6C11.8 6.1 11.4 6.19999 11.2 6.29999L10.7 5.79999C10.5 5.59999 10.2 5.59999 10.1 5.79999L9.2 6.5C9.1 6.6 9.1 6.69999 9 6.79999C9 6.89999 9.00001 7.00001 9.10001 7.10001L9.5 7.70001C9.3 8.00001 9.1 8.30001 9 8.70001H8.3C8.1 8.70001 7.9 8.90001 7.8 9.10001L7.7 10.2C7.7 10.4 7.80001 10.7 8.10001 10.7L8.8 10.8C8.9 11.2 9.00001 11.5 9.10001 11.8L8.60001 12.3C8.40001 12.5 8.40001 12.7 8.60001 12.9L9.3 13.8C9.4 14 9.69999 14 9.89999 13.9L10.4 13.5C10.7 13.7 11 13.9 11.4 14V14.7C11.4 14.9 11.6 15.1 11.8 15.1L12.9 15.2C12.9 15.2 12.9 15.2 13 15.2C13.2 15.2 13.4 15.1 13.5 14.8L13.6 14.2C14 14.1 14.3 14 14.7 13.8L15.2 14.3C15.4 14.5 15.6 14.5 15.8 14.3L16.7 13.6C16.9 13.5 16.9 13.2 16.8 13L16.4 12.4C16.6 12.1 16.8 11.8 16.9 11.4H17.6C17.8 11.4 18 11.2 18.1 11L18.2 9.89999C18.2 9.89999 18.1 9.70001 17.8 9.60001ZM14.8 10.5C14.7 11.5 13.9 12.2 12.9 12.2H12.8C11.8 12.1 11 11.2 11.1 10.2C11.2 9.20001 12 8.5 13 8.5H13.1C13.6 8.6 14.1 8.80001 14.4 9.20001C14.7 9.50001 14.8 10 14.8 10.5Z" fill="#475B75"/>
</svg>
