<svg width="9" height="9" viewBox="0 0 9 9" fill="none" xmlns="http://www.w3.org/2000/svg">
  <path d="M8.29999 2.60001C8.49999 2.70001 8.60001 2.8 8.60001 3V7.7C8.60001 7.9 8.40001 8.2 8.10001 8.2H1.39999C1.19999 8.2 0.899994 8 0.899994 7.7V3C0.899994 2.8 1.09999 2.5 1.39999 2.5H4.5L3.89999 3.39999H1.79999V7.2H7.60001V3.39999L8.29999 2.60001Z" fill="#475B75"/>
  <path d="M8.10001 1.39997L6.89999 0.599986C6.79999 0.499986 6.70001 0.599986 6.70001 0.599986L5.39999 2.49998L4.79999 3.39997L4.10001 4.39997L3.89999 5.99998C3.89999 6.09998 3.9 6.09998 4 6.19998H4.10001H4.20001L5.60001 5.39997L7 3.29998L7.60001 2.39997L8.20001 1.49998V1.39997C8.10001 1.49997 8.10001 1.49997 8.10001 1.39997ZM4.10001 5.99998L4.20001 4.99998L5 5.49998L4.10001 5.99998ZM7.10001 2.59999L6.5 3.49998L5.29999 5.19998L4.39999 4.59999L5.10001 3.49998L5.70001 2.59999L6.79999 0.99998L7.70001 1.59999L7.10001 2.59999Z" fill="#475B75"/>
</svg>
