<svg width="8" height="7" viewBox="0 0 8 7" fill="none" xmlns="http://www.w3.org/2000/svg">
  <path d="M4.39999 4.6C4.39999 4.5 4.39999 4.5 4.39999 4.6C4.29999 4.5 4.29999 4.5 4.29999 4.5H0.200012H0.100006V4.6C0.100006 5.1 0.500006 5.6 1.10001 5.9C1.00001 5.9 1 6 1 6.1C1 6.2 1.09999 6.4 1.29999 6.4H3.5C3.6 6.4 3.79999 6.3 3.79999 6.1C3.79999 6 3.70001 5.9 3.70001 5.9C4.00001 5.5 4.39999 5.1 4.39999 4.6Z" fill="#475B75"/>
  <path d="M6.89999 2.69999C6.29999 1.99999 6.79999 1.39999 6.79999 1.39999C6.89999 1.29999 6.89999 1.19999 6.79999 1.09999C6.59999 0.799987 6.09999 0.799992 5.39999 0.799992C4.99999 0.799992 4.3 0.699987 4 1.09999C3.9 1.19999 3.9 1.29999 4 1.39999C4 1.39999 4.49999 1.99999 3.89999 2.59999C3.89999 2.59999 3.89999 2.59999 3.89999 2.69999C3.49999 2.99999 3.30001 3.49999 3.20001 3.99999H4.20001C4.40001 3.99999 4.50001 4.09999 4.60001 4.19999C4.70001 4.29999 4.80001 4.49999 4.70001 4.59999C4.70001 5.09999 4.39999 5.59999 3.89999 5.99999C3.99999 6.09999 4.19999 6.19999 4.29999 6.29999H4.39999H6.29999H6.39999C7.09999 5.89999 7.60001 5.19999 7.60001 4.39999C7.70001 3.69999 7.39999 3.19999 6.89999 2.69999Z" fill="#475B75"/>
  <path d="M3.60001 6.09999C3.60001 5.99999 3.5 5.89999 3.5 5.89999C3.5 5.89999 3.60001 5.99999 3.60001 6.09999Z" fill="white"/>
</svg>
