<svg width="8" height="7" viewBox="0 0 8 7" fill="none" xmlns="http://www.w3.org/2000/svg">
  <path d="M4 2.70001C3.1 2.70001 2.29999 3.40001 2.29999 4.40001C2.29999 5.30001 3 6.10002 4 6.10002C5 6.10002 5.70001 5.40001 5.70001 4.40001C5.70001 3.50001 4.9 2.70001 4 2.70001ZM4 5.50002C3.4 5.50002 2.89999 5.00001 2.89999 4.40001C2.89999 3.80001 3.4 3.30002 4 3.30002C4.6 3.30002 5.10001 3.80001 5.10001 4.40001C5.20001 5.00001 4.7 5.50002 4 5.50002Z" fill="#475B75"/>
  <path d="M7.20001 1.2H2.89999C2.89999 0.999997 2.80001 0.899994 2.60001 0.899994H1.70001C1.50001 0.899994 1.39999 0.999997 1.39999 1.2H0.5C0.3 1.2 0 1.4 0 1.7V6.39999C0 6.59999 0.2 6.89999 0.5 6.89999H7.20001C7.40001 6.89999 7.70001 6.69999 7.70001 6.39999V1.7C7.60001 1.4 7.40001 1.2 7.20001 1.2ZM6.70001 2.8H5.39999C5.49999 2.9 5.60001 3 5.60001 3H6.70001V5.89999H5.39999C4.99999 6.19999 4.6 6.39999 4 6.39999C3.4 6.39999 3.00001 6.19999 2.60001 5.89999H0.899994V3H2.39999L2.60001 2.8H0.899994V2.10001H6.70001V2.8V2.8Z" fill="#475B75"/>
</svg>
