<svg width="8" height="9" viewBox="0 0 8 9" fill="none" xmlns="http://www.w3.org/2000/svg">
  <path d="M6.5 3.10001L7.29999 2.00001C7.69999 1.60001 7.60001 1.00001 7.20001 0.600008C6.80001 0.200008 6.19999 0.300006 5.79999 0.700006L4.89999 1.70001L4.79999 1.60001C4.49999 1.30001 4.09999 1.40001 3.79999 1.70001C3.49999 2.00001 3.59999 2.40001 3.89999 2.70001L4.20001 2.90001L0.899994 6.60001L0 8.00001C0 8.10001 0 8.20001 0 8.20001L0.399994 8.60001C0.499994 8.70001 0.600006 8.70001 0.600006 8.60001L1.89999 7.50001L5.20001 3.80001L5.5 4.00001C5.8 4.30001 6.2 4.20001 6.5 3.90001C6.8 3.60001 6.8 3.40001 6.5 3.10001ZM1.70001 7.40001L0.5 8.40001L0.299988 8.20001L1.10001 6.90001L4.39999 3.20001L5 3.70001L1.70001 7.40001ZM1.60001 7.30001L0.799988 8.00001L0.700012 7.90001L1.29999 7.00001L3.60001 4.40001L4 4.70001L1.60001 7.30001Z" fill="#475B75"/>
</svg>
