<?xml version="1.0" encoding="utf-8"?>
<svg viewBox="392.3 543.8 33.8 30.7" xmlns="http://www.w3.org/2000/svg">
  <defs>
    <style type="text/css">
	.st0{font-family:'MyriadPro-Regular';}
	.st1{font-size:12px;}
	.st2{fill:#FFFFFF;stroke:#475B75;stroke-width:2;stroke-miterlimit:10;}
	.st3{fill:#475B75;stroke:#FFFFFF;stroke-width:2;stroke-miterlimit:10;}
	.st4{fill:#FFFFFF;}
	.st5{fill:none;stroke:#475B75;stroke-width:2;stroke-linecap:round;stroke-miterlimit:10;stroke-dasharray:6.226,4.1507;}
	.st6{fill:#475B75;}
	.st7{fill:none;stroke:#475B75;stroke-width:2;stroke-miterlimit:10;}
	.st8{fill:none;stroke:#FFFFFF;stroke-miterlimit:10;}
</style>
  </defs>
  <g transform="matrix(0.9999999999999999, 0, 0, 0.9999999999999999, 0, 0)">
    <g>
      <g>
        <path class="st4" d="M417.6,574.5h-16.8c0,0-0.1,0-0.1-0.1l-8.4-15.2c0,0,0-0.1,0-0.1l8.4-15.2c0,0,0.1-0.1,0.1-0.1h16.8 c0,0,0.1,0,0.1,0.1l8.4,15.2c0,0,0,0.1,0,0.1l-8.4,15.2C417.7,574.4,417.7,574.5,417.6,574.5z"/>
        <g>
          <path class="st5" d="M417.6,574.5h-16.8c0,0-0.1,0-0.1-0.1l-8.4-15.2c0,0,0-0.1,0-0.1l8.4-15.2c0,0,0.1-0.1,0.1-0.1h16.8 c0,0,0.1,0,0.1,0.1l8.4,15.2c0,0,0,0.1,0,0.1l-8.4,15.2C417.7,574.4,417.7,574.5,417.6,574.5z"/>
        </g>
      </g>
    </g>
  </g>
</svg>